<svg width="132" height="20" viewBox="0 0 132 20" fill="none" xmlns="http://www.w3.org/2000/svg">
<path d="M8.40074 8.22598C8.51495 8.56123 8.57339 8.92885 8.57603 9.32884C8.57857 9.71283 8.57252 10.0089 8.5579 10.217L8.54104 11.2971C8.54262 11.5371 8.55205 11.7531 8.56932 11.9449C8.58648 12.1208 8.59554 12.2808 8.59649 12.4248C8.59755 12.5848 8.36635 12.7063 7.90289 12.7894C7.45532 12.8563 6.82376 12.9245 6.0082 12.9939C5.89631 13.0106 5.78436 13.0194 5.67236 13.0201C5.57637 13.0207 5.48842 13.0293 5.40853 13.0459C5.30721 14.6626 5.26211 16.3109 5.27321 17.9909L5.27956 18.9508C4.5761 19.0355 3.64038 19.0817 2.47241 19.0894C1.44843 19.0962 0.823917 19.0203 0.598864 18.8618L0.596802 18.5498C0.34049 18.5035 0.180124 18.4485 0.115702 18.385C0.0941283 15.121 0.0863178 12.729 0.0922708 11.209L0.0539279 1.77701C0.597176 1.66141 1.52452 1.55928 2.83596 1.47061C4.1473 1.36594 5.42696 1.30948 6.67493 1.30123C8.57889 1.28865 10.1078 1.41454 11.2615 1.67892L11.2641 2.06292C11.3283 2.09449 11.4885 2.12543 11.7447 2.15574C11.7473 2.55573 11.7575 2.88367 11.7752 3.13956L11.8081 4.48337C11.8105 4.85137 11.7901 5.39551 11.7469 6.11581L9.5397 6.25041C7.47649 6.37604 6.0611 6.4734 5.29354 6.54248C5.19987 6.8951 5.15372 7.17542 5.1551 7.38341L5.13284 7.64756C5.1339 7.80756 5.25443 7.88676 5.49442 7.88518C6.4864 7.87862 7.29412 7.83328 7.91757 7.74916C7.96631 7.86084 8.00748 8.03657 8.04106 8.27636L8.40074 8.22598ZM7.87334 11.9495C7.83901 11.5978 7.82105 11.3019 7.81947 11.0619L7.83585 9.90975C7.85027 9.66965 7.85605 9.3336 7.85319 8.90161C7.85023 8.45362 7.82427 8.15779 7.77532 8.01411C7.50365 8.0639 7.11981 8.09044 6.62382 8.09372C6.14383 8.09689 5.83184 8.09895 5.68784 8.0999C5.35185 8.10213 5.0957 8.07982 4.91938 8.03298C4.75907 7.98604 4.63839 7.88284 4.55733 7.72337C4.47617 7.5479 4.43437 7.27617 4.43194 6.90818C4.4293 6.50819 4.49897 6.15572 4.64095 5.85078C5.34452 5.78212 6.71191 5.68508 8.74312 5.55965C9.479 5.53879 10.2467 5.49372 11.0463 5.42443C11.0613 5.28033 11.0676 5.02428 11.0652 4.65629L11.0587 3.67231L11.0228 1.87251C10.0612 1.63886 8.61247 1.52843 6.67651 1.54123C5.42854 1.54948 4.18889 1.60567 2.95755 1.70981C1.7261 1.79795 0.838704 1.89182 0.29535 1.99141L0.318035 5.42334L0.330679 10.9674C0.321342 11.9755 0.323495 13.5115 0.337137 15.5754L0.379062 18.2872C0.491482 18.3505 1.02768 18.3789 1.98766 18.3726C3.12364 18.3651 3.97941 18.3274 4.55497 18.2596L4.55005 17.5156C4.56704 15.2435 4.61972 13.5311 4.7081 12.3785L4.7321 12.3783C5.05167 12.3122 5.56324 12.2448 6.2668 12.1762C6.97036 12.1075 7.48198 12.0481 7.80166 11.998C7.84965 11.9977 7.87355 11.9815 7.87334 11.9495ZM11.6222 1.26853C12.7731 1.10092 13.6843 0.974895 14.3558 0.890454C15.0432 0.805909 15.7469 0.761256 16.4669 0.756497C17.7629 0.747931 18.8759 0.892579 19.8059 1.19044C20.7518 1.48819 21.5473 2.00295 22.1921 2.7347C23.3535 4.15105 23.9382 5.46722 23.9463 6.68319C23.9508 7.37118 23.8035 8.07617 23.5042 8.79816C23.2049 9.50415 22.7689 10.115 22.1963 10.6308C21.6237 11.1466 20.9457 11.4471 20.1622 11.5323C20.4536 12.0424 20.9628 12.823 21.6897 13.8743C22.3359 14.798 22.8612 15.6026 23.2657 16.2879C23.6703 16.9732 24.0191 17.707 24.3123 18.489L24.4584 18.8001L24.1224 18.8023C23.8664 18.804 23.4345 18.8228 22.8267 18.8589C22.1229 18.8955 21.5871 18.9151 21.2191 18.9175C20.8831 18.9197 20.459 18.9065 19.9468 18.8779C19.9145 18.8301 19.882 18.7583 19.8493 18.6625C19.8168 18.5827 19.7684 18.5191 19.7041 18.4715C19.6558 18.4238 19.5756 18.4003 19.4636 18.4011C18.6186 16.4386 17.7516 14.7803 16.8627 13.4262L16.8668 14.0501C16.8698 14.4981 16.916 15.4419 17.0055 16.8813C17.0579 17.553 17.0856 18.1128 17.0886 18.5608C16.7537 18.723 16.3784 18.8295 15.9627 18.8802C15.563 18.9309 15.0832 18.958 14.5232 18.9617L13.4671 18.9447L12.0751 18.9539C12.057 18.634 12.0467 18.2901 12.0443 17.9221L12.0058 15.7383L11.993 13.7944C11.9765 11.2984 11.9276 8.73868 11.8462 6.11516C11.7809 3.49153 11.7062 1.87599 11.6222 1.26853ZM19.4136 10.8412C20.2292 10.7719 20.9234 10.5033 21.4964 10.0355C22.0692 9.55166 22.4973 8.96482 22.7807 8.27493C23.0642 7.58504 23.2036 6.89611 23.1991 6.20812C23.1935 5.36014 22.9721 4.54558 22.5349 3.76446C22.1138 2.98322 21.5175 2.34715 20.7463 1.85624C19.991 1.36522 19.1493 1.10678 18.2211 1.08091C17.6927 1.0204 17.1005 0.992316 16.4445 0.996652C15.7245 1.00141 15.0448 1.0459 14.4053 1.13013C13.7818 1.19826 12.9505 1.30775 11.9115 1.45862C11.9945 1.92208 12.0679 3.34563 12.1317 5.72926C12.1954 8.11289 12.2363 10.6567 12.2541 13.3606L12.2705 15.8326C12.2755 16.6005 12.2711 17.1366 12.2571 17.4407L12.262 18.1847C12.3101 18.2004 12.3662 18.208 12.4302 18.2076C12.6382 18.2062 12.8062 18.2131 12.9343 18.2282L13.8945 18.2459C14.4864 18.242 14.9823 18.2227 15.3821 18.1881C15.7818 18.1374 16.1092 18.0552 16.3645 17.9416C16.226 16.3584 16.1525 14.9109 16.1438 13.5989C16.1398 12.9909 16.1604 12.4868 16.2058 12.0865L16.2543 12.1582C16.8671 12.8901 17.4733 13.8221 18.0728 14.9542C18.6722 16.0703 19.1913 17.1389 19.63 18.16L19.654 18.1598C20.1982 18.1882 20.6143 18.2015 20.9023 18.1996C21.2543 18.1972 21.7502 18.178 22.39 18.1417C22.9657 18.1059 23.3736 18.0872 23.6136 18.0856C23.3205 17.3196 22.9556 16.578 22.5189 15.8608C22.082 15.1277 21.5486 14.3072 20.9186 13.3994C20.7569 13.1444 20.4984 12.7621 20.143 12.2525C19.8035 11.7267 19.5204 11.2645 19.2938 10.866L19.4136 10.8412ZM17.139 4.40014C17.683 4.39654 18.1321 4.56157 18.4863 4.89524C18.8404 5.21291 19.0193 5.65173 19.023 6.21172C19.0268 6.78771 18.8615 7.19681 18.5271 7.43903C18.2087 7.68114 17.6815 7.80462 16.9455 7.80949C16.4496 7.81277 16.0014 7.79173 15.6011 7.74637L15.5771 7.74653C15.5273 7.47486 15.4996 6.91503 15.494 6.06704L15.4376 4.79539C16.0119 4.53559 16.579 4.40384 17.139 4.40014ZM17.6238 5.11695C17.1758 5.11991 16.6885 5.22713 16.1619 5.43862C16.1966 5.8544 16.215 6.22228 16.2172 6.54228L16.1978 7.23842L16.224 7.57425L16.944 7.56949C17.312 7.56706 17.6638 7.54074 17.9995 7.49052L17.9755 7.49067C18.247 7.42488 18.4541 7.27951 18.5966 7.05456C18.739 6.81361 18.8091 6.53314 18.807 6.21315C18.8022 5.47717 18.4077 5.11177 17.6238 5.11695ZM29.1099 1.48895L29.5899 1.48578L29.5921 1.82177C29.6005 3.08574 29.5998 4.19777 29.5902 5.15785C29.5805 6.11794 29.5698 6.91803 29.558 7.55812C29.5112 10.1505 29.4922 12.1187 29.5011 13.4626C29.5126 15.2066 29.5718 16.9102 29.6788 18.5736C29.4245 18.8312 28.8414 18.9631 27.9294 18.9691L26.8493 18.9523C26.6092 18.9379 26.2731 18.9321 25.8412 18.9349C25.4892 18.9373 25.1454 18.9795 24.81 19.0618L24.8302 18.4856C24.5584 18.5194 24.3906 18.5525 24.3268 18.5849C24.4279 16.9362 24.474 15.4319 24.465 14.0719C24.4589 13.1599 24.4457 12.36 24.4251 11.6721C24.4045 10.9683 24.3847 10.3924 24.3657 9.94449C24.2896 8.12095 24.2485 6.7372 24.2423 5.79322C24.2319 4.22525 24.3013 2.61676 24.4504 0.967735C24.6741 0.934255 24.818 0.917303 24.882 0.91688C25.33 0.913919 25.7941 0.926852 26.2743 0.955679C26.6426 1.00125 27.1228 1.02207 27.7148 1.01816L29.1067 1.00896L29.1099 1.48895ZM27.7404 1.258C27.3564 1.26053 26.7322 1.24066 25.8679 1.19837C25.3877 1.16954 25.0196 1.15598 24.7636 1.15767L24.6676 1.1583L24.6679 1.2063C24.5325 2.50323 24.4706 4.02367 24.4821 5.76763C24.4882 6.69561 24.5016 7.50354 24.5221 8.19142C24.5427 8.8793 24.5625 9.45518 24.5815 9.91906C24.658 11.8066 24.6995 13.2384 24.7059 14.2143C24.7148 15.5583 24.6757 16.9026 24.5886 18.2472C24.8124 18.2137 24.9963 18.1965 25.1402 18.1956C25.3322 18.1943 25.6843 18.208 26.1965 18.2366C26.7727 18.2648 27.2208 18.2778 27.5408 18.2757C28.3088 18.2706 28.7802 18.1795 28.9551 18.0023C28.8476 16.275 28.7881 14.5314 28.7765 12.7714C28.7678 11.4594 28.7871 9.53926 28.8344 7.01089C28.8462 6.3708 28.8569 5.57871 28.8667 4.63462C28.8765 3.69054 28.8772 2.59451 28.869 1.34654L28.8683 1.25054L27.7404 1.258ZM41.6997 15.278C41.7349 15.7578 41.7533 16.1257 41.755 16.3817C41.7601 17.1497 41.6692 17.9183 41.4822 18.6875C40.7782 18.6922 39.7224 18.7152 38.3146 18.7565L35.1948 18.8011C33.7709 18.8105 32.4426 18.7713 31.21 18.6834L31.207 18.2275L30.7268 18.2066C30.7213 17.3746 30.7069 16.4067 30.6836 15.3028C30.6603 14.199 30.6388 13.3591 30.619 12.7832C30.5595 11.0556 30.5241 9.31977 30.5125 7.57581C30.4992 5.55986 30.5495 3.47948 30.6633 1.33468C31.9108 1.26243 33.3505 1.20491 34.9823 1.16213C36.6299 1.10324 37.9897 1.07025 39.0617 1.06316C40.3257 1.05481 40.9903 1.14642 41.0555 1.33799C41.0563 1.44999 41.0809 1.53783 41.1293 1.60151C41.1936 1.64908 41.2739 1.68855 41.3701 1.71992C41.4663 1.75128 41.5225 1.78291 41.5387 1.8148L41.5386 1.79081C41.605 2.15837 41.6398 2.58215 41.643 3.06214C41.6446 3.31814 41.6312 3.70224 41.6026 4.21444C41.5742 4.75863 41.5609 5.17473 41.5628 5.46273C40.7481 5.66012 39.7168 5.76293 38.4688 5.77118L37.6048 5.77689L36.6687 5.75908C36.1727 5.76236 35.6769 5.78964 35.1812 5.84091C35.1828 6.08091 35.1688 6.39301 35.1394 6.77721L35.1206 7.56935L35.122 7.78535L35.5542 7.80649L36.49 7.77631C36.57 7.77578 36.9702 7.79713 37.6905 7.84037C37.7068 7.88827 37.7233 7.96816 37.74 8.08005C37.7567 8.17594 37.7891 8.23973 37.8373 8.27141C37.9015 8.30299 38.0136 8.31825 38.1736 8.31719C38.2564 8.73265 38.2996 9.22038 38.3033 9.78036C38.3066 10.2764 38.3011 10.6524 38.2867 10.9085L38.2704 12.0606C37.7912 12.1918 37.1757 12.2599 36.4237 12.2648C35.8317 12.2688 35.4718 12.2871 35.344 12.32C35.2976 12.5603 35.276 12.9284 35.2793 13.4244C35.2825 13.9044 35.2928 14.2484 35.3101 14.4563C37.2307 14.5396 38.751 14.5775 39.871 14.5701C40.255 14.5676 40.7029 14.5486 41.2146 14.5132L41.2165 14.8012L41.242 15.0171C41.434 15.0158 41.5859 15.0068 41.6978 14.99L41.6997 15.278ZM40.9764 14.7788C40.7365 14.7964 40.3926 14.8067 39.9446 14.8096C39.5446 14.8123 39.0805 14.8073 38.5524 14.7948C38.0243 14.7823 37.6162 14.769 37.3281 14.7549C36.4638 14.7126 35.5837 14.6944 34.6877 14.7004L34.6636 14.6765C34.5969 14.277 34.5611 13.7012 34.5562 12.9492C34.5528 12.4372 34.582 12.013 34.6437 11.6766C34.7074 11.6282 34.8512 11.5952 35.0751 11.5777C35.299 11.5603 35.5469 11.5506 35.8189 11.5488C36.6509 11.5433 37.2266 11.4915 37.5459 11.3934L37.5561 9.30529C37.5524 8.74531 37.5257 8.32947 37.4759 8.0578L37.4757 8.0338C37.0437 8.03665 36.7157 8.03082 36.4916 8.0163C35.6116 8.02212 34.9555 8.01045 34.5233 7.98131L34.4992 7.95747C34.4336 7.7179 34.3996 7.41412 34.3971 7.04612C34.3957 6.82213 34.4095 6.50203 34.4388 6.08583L34.4566 5.14969L34.5524 5.12505C34.8402 5.09115 35.1521 5.07309 35.4881 5.07087C35.8241 5.06865 36.0481 5.06717 36.1601 5.06643L38.056 5.05389C39.224 5.04617 40.1515 4.96004 40.8384 4.7955L40.8382 4.7715L40.8548 3.64337C40.8834 3.13117 40.8969 2.74707 40.8952 2.49107C40.8927 2.12308 40.8662 1.74725 40.8157 1.36357C40.8154 1.31558 40.2312 1.29544 39.0633 1.30316C36.5673 1.31965 33.8399 1.40968 30.8809 1.57325C30.7951 3.12585 30.7598 5.04612 30.775 7.33407C30.7828 8.51804 30.8104 10.2779 30.8579 12.6136C30.9176 14.3893 30.9534 16.1811 30.9654 17.989C31.9099 18.0628 33.0701 18.0951 34.4461 18.086C35.1341 18.0815 36.198 18.0585 37.6377 18.0169L40.8055 17.972C40.9614 17.347 41.0369 16.6664 41.032 15.9305C41.0303 15.6745 41.0119 15.3066 40.9767 14.8268L40.9764 14.7788ZM49.53 18.2263L49.2661 18.2281L48.1948 15.9311C47.8543 15.2454 47.5218 14.5595 47.1972 13.8737C46.8886 13.1717 46.6365 12.5573 46.441 12.0306L46.4585 14.6706C46.4714 16.6225 46.4962 17.9584 46.533 18.6782C46.1977 18.7924 45.7661 18.8512 45.2381 18.8547C44.9501 18.8566 44.6941 18.8503 44.47 18.8358C44.2619 18.8212 44.0858 18.8063 43.9417 18.7913C43.5414 18.7459 43.1252 18.7247 42.6932 18.7275L42.69 18.2476L42.21 18.2507L42.1974 16.3308C42.1907 15.3228 42.165 13.8589 42.1203 11.9392L42.0681 7.66743C42.0515 5.15549 42.1169 2.94701 42.2643 1.04199C42.6477 0.943456 43.0793 0.892602 43.5593 0.889429C43.8953 0.887208 44.3436 0.932247 44.9042 1.02454C45.4648 1.10084 45.7614 1.20288 45.7943 1.33067C45.8435 1.50635 45.9322 1.62576 46.0607 1.68891C46.189 1.73607 46.2612 1.77559 46.2775 1.80748C46.5539 2.47767 46.8706 3.19559 47.2277 3.96125C47.5848 4.72691 48.104 5.8115 48.7853 7.21503L48.7819 6.71104C48.7791 6.27905 48.7592 5.69517 48.7223 4.95939L48.6869 3.23159C48.6695 3.0237 48.6754 2.69565 48.7044 2.24745L48.7229 1.40731L48.7194 0.879323C49.2786 0.763624 49.9342 0.70329 50.6862 0.698319C51.2622 0.694512 51.8706 0.754492 52.5114 0.878259L52.5141 1.28625L52.9946 1.35508L53.047 9.2749L53.0981 13.3787L53.0831 14.7468L53.098 17.0027L53.1284 17.9626L53.1088 18.6347C53.0609 18.651 52.9491 18.6838 52.7735 18.7329C52.5978 18.7821 52.374 18.8076 52.102 18.8094C51.718 18.8119 51.3098 18.7906 50.8775 18.7455C50.3653 18.7168 49.9892 18.7033 49.7492 18.7049L49.53 18.2263ZM52.4052 17.4873L52.3685 15.5675L52.3749 12.9034L52.3613 10.8395C52.3553 9.92749 52.3428 9.24756 52.3238 8.79967L52.2727 1.07184C51.8241 0.978804 51.2958 0.934295 50.6878 0.938314C50.0958 0.942227 49.5201 0.994033 48.9608 1.09373C48.9358 2.14992 48.9245 2.86201 48.9269 3.23L48.9619 4.88581C48.9989 5.65358 49.019 6.26146 49.0219 6.70945C49.0238 6.99744 49.0097 7.28554 48.9796 7.57375C48.9494 7.84596 48.9104 7.99822 48.8626 8.03053C48.8306 8.03074 48.5472 7.50461 48.0122 6.45212C47.4771 5.38363 47.0798 4.57824 46.8202 4.03595C46.6902 3.7328 46.5603 3.45365 46.4307 3.1985C46.301 2.94335 46.2037 2.75199 46.1388 2.62442L45.8712 2.07417L45.5545 1.35625C45.554 1.29225 45.2977 1.23795 44.7854 1.19333C44.2731 1.14872 43.8649 1.12741 43.5609 1.12942C43.1129 1.13238 42.7531 1.16676 42.4816 1.23256C42.3491 2.97747 42.2913 5.1219 42.3081 7.66585L42.3605 11.9616C42.405 13.8493 42.4306 15.3052 42.4374 16.3292L42.4485 18.0091C42.8164 18.0067 43.1926 18.0282 43.5769 18.0737C43.705 18.0888 43.8651 18.1038 44.0572 18.1185C44.2493 18.1332 44.4814 18.1397 44.7534 18.1379C45.1533 18.1353 45.5051 18.0929 45.8085 18.0109C45.7914 17.835 45.7814 17.5311 45.7785 17.0991L45.7714 16.0191C45.7619 14.5792 45.7688 13.2031 45.7921 11.8909C45.8154 10.5787 45.8511 9.92248 45.8991 9.92216C45.9471 9.92185 46.0527 10.1612 46.2158 10.6401L46.4606 11.3585C46.7702 12.2045 47.4038 13.6563 48.3614 15.714L49.4085 17.9871C49.7605 17.9848 50.1286 18.0064 50.5129 18.0518C51.0251 18.0805 51.3932 18.094 51.6172 18.0925C51.9052 18.0906 52.1689 18.0489 52.4084 17.9673L52.4052 17.4873ZM63.4018 3.44633C64.0966 4.48176 64.6006 5.67846 64.9135 7.03642L64.8894 7.01258C65.0199 7.39573 65.1035 7.93118 65.14 8.61896L65.0771 9.9874C65.054 11.3476 64.9729 12.3801 64.8335 13.0851C64.504 14.0633 64.0701 14.9862 63.5318 15.8537C63.0095 16.7212 62.3913 17.6053 61.6773 18.5061C60.1416 18.5642 58.5018 18.5991 56.7579 18.6106C56.342 18.6293 55.7581 18.6412 55.0061 18.6462L54.9307 18.1426L54.5229 18.1693C54.2211 16.0753 54.0593 13.3963 54.0378 10.1324C54.0288 8.7724 54.03 7.74837 54.0415 7.06028L54.0439 3.79619C54.037 2.75622 54.0239 1.98029 54.0045 1.4684C54.0043 1.4364 54.0121 1.41235 54.028 1.39625C54.0595 1.31604 54.115 1.23567 54.1944 1.15514C54.6097 1.04039 55.0252 0.965646 55.441 0.930896C55.8727 0.880043 56.3765 0.852712 56.9525 0.848905C57.4485 0.845627 57.8245 0.851141 58.0806 0.865449L59.1847 0.882151C59.6007 0.879401 59.9127 0.869339 60.1206 0.851965C60.7618 1.03973 61.3961 1.38754 62.0235 1.89541C62.6508 2.38727 63.1182 2.9042 63.4258 3.44617L63.4018 3.44633ZM59.4023 1.12072C58.8903 1.1241 58.4983 1.11869 58.2262 1.10449L57.0261 1.08842C55.9221 1.09572 55.0187 1.18969 54.3159 1.37034L54.2445 1.46682C54.2639 1.9787 54.277 2.74663 54.2837 3.77061L54.2813 7.0347C54.27 7.73879 54.269 8.80282 54.2784 10.2268C54.289 11.8267 54.3223 13.2346 54.3783 14.4502C54.4504 15.6658 54.57 16.825 54.7373 17.9279L54.7612 17.9038C57.5611 17.8853 59.6649 17.8473 61.0725 17.79C61.8025 16.8732 62.4128 16.0131 62.9035 15.2099C63.4102 14.4065 63.8047 13.5639 64.0868 12.682L64.1105 12.6339C64.2649 11.7848 64.3534 10.6402 64.3758 9.20002L64.4167 8.11973C64.363 7.25606 64.1892 6.38519 63.8954 5.50712C63.6016 4.62904 63.2123 3.82359 62.7274 3.09078C62.4363 2.6127 62.0495 2.19125 61.567 1.82643C61.1006 1.4615 60.611 1.21673 60.0982 1.09212L59.4023 1.12072ZM59.4071 12.7369C59.1354 12.7867 58.8556 12.8126 58.5676 12.8145C58.1996 12.8169 57.9351 12.7467 57.7742 12.6037C57.7373 11.868 57.7176 11.3001 57.7149 10.9001L57.7283 9.29196C57.7421 8.95586 57.7469 8.47582 57.7428 7.85183C57.7403 7.48384 57.7211 6.99596 57.6851 6.38818L57.6845 6.29219L57.7565 6.29171C58.0441 6.24181 58.348 6.2158 58.668 6.21368C59.628 6.20734 60.2943 6.55494 60.6669 7.25649C61.0394 7.94205 61.2288 8.74881 61.2349 9.67679C61.2397 10.3968 61.0204 11.1102 60.5771 11.8172C60.4186 12.0582 60.2361 12.2755 60.0293 12.4688C59.8225 12.6462 59.6311 12.7355 59.4551 12.7366L59.4071 12.7369ZM60.3843 11.6985C60.7961 11.0717 60.9997 10.3984 60.9949 9.67838C60.9926 9.32639 60.9258 8.90282 60.7945 8.40768C60.6631 7.89653 60.4842 7.45771 60.2578 7.09119L60.017 6.97278C59.6328 6.94332 59.3447 6.92923 59.1527 6.93049C59.0087 6.93145 58.7608 6.94909 58.4091 6.98341C58.4451 7.59119 58.4644 8.09507 58.467 8.49506L58.4553 10.3432C58.4288 11.1754 58.4168 11.7915 58.4195 12.1915L58.446 12.5753L58.566 12.5745C58.742 12.5733 58.91 12.5642 59.0698 12.5472C59.2296 12.5141 59.3495 12.4973 59.4295 12.4968L59.4777 12.5205C59.5257 12.5202 59.6134 12.4716 59.7407 12.3747L59.7167 12.3749C59.9558 12.2293 60.1782 11.9958 60.3841 11.6745L60.3843 11.6985ZM76.7044 17.3987C76.7071 17.7987 76.6769 18.0789 76.614 18.2393C76.567 18.3996 76.4956 18.4881 76.3997 18.5048C76.3038 18.5214 76.0959 18.5308 75.7759 18.5329L75.3677 18.5116C75.0958 18.5134 74.8478 18.523 74.6239 18.5405C73.6002 18.5793 72.1763 18.6047 70.3523 18.6167C68.5924 18.6284 67.1683 18.6298 66.0803 18.621L66.0771 18.141L65.5971 18.1441L65.5927 17.4722C65.6897 15.2155 65.7282 12.5592 65.708 9.50322C65.6854 6.0793 65.6343 3.19157 65.5547 0.840046C65.7622 0.758673 66.0498 0.692771 66.4174 0.642339C66.801 0.575803 67.1848 0.541265 67.5688 0.538727C68.5288 0.532382 69.2976 0.655303 69.8753 0.907491L69.8533 1.21964C69.9335 1.25111 70.0138 1.28258 70.094 1.31405C70.1741 1.32953 70.2622 1.35294 70.3584 1.38431C70.334 2.53649 70.3243 3.48858 70.3293 4.24056C70.3357 5.20054 70.3612 6.6404 70.4059 8.56015L70.4579 12.8079L70.4643 13.7679C72.6411 13.8815 74.2255 13.935 75.2175 13.9285C75.5214 13.9265 75.8493 13.9083 76.2011 13.874L76.2046 14.402L76.6843 14.3508C76.6865 14.6868 76.6727 15.0149 76.6428 15.3351L76.6221 15.8392L76.6477 16.0791L76.6479 16.1031L76.7044 17.3987ZM75.8991 15.388C75.8983 15.26 75.9129 15.0519 75.943 14.7637L75.963 14.1635C75.9311 14.1798 75.8112 14.1885 75.6032 14.1899C75.2992 14.1919 74.539 14.165 73.3226 14.109C73.0345 14.0949 72.5704 14.074 71.9302 14.0462C71.306 14.0183 70.8179 14.0055 70.4659 14.0079C70.2099 14.0096 69.97 14.0272 69.7462 14.0606L69.746 14.0366L69.7577 12.1645C69.7519 11.2845 69.7268 9.91667 69.6825 8.06092C69.6385 6.23717 69.6134 4.86131 69.6073 3.93333C69.6028 3.26134 69.6125 2.30126 69.6362 1.05307C69.187 0.864039 68.4983 0.772589 67.5704 0.778723C67.2024 0.781155 66.8505 0.807481 66.5149 0.8577C66.1951 0.891815 65.9554 0.941401 65.7958 1.00646C65.8809 4.18996 65.9316 7.02169 65.948 9.50164C65.9682 12.5576 65.9297 15.2139 65.8327 17.4706L65.8355 17.9026C66.2995 17.8995 66.6355 17.9053 66.8437 17.9199L70.1317 17.9222C71.4117 17.9137 72.7955 17.8806 74.2832 17.8227C74.4751 17.8055 74.699 17.796 74.955 17.7943L75.4831 17.8148C75.6911 17.8134 75.8268 17.7645 75.8902 17.6681C75.9535 17.5717 75.9839 17.3235 75.9813 16.9235L75.9247 15.6278L75.8991 15.388ZM87.4473 1.67936C87.0559 2.99398 86.5925 4.28507 86.0568 5.55264C85.5211 6.80421 84.7721 8.46519 83.8097 10.5356C82.9577 12.3493 82.2795 13.8338 81.7751 14.9891C81.2707 16.1445 80.8145 17.3235 80.4065 18.5263C80.2462 18.4953 80.0781 18.4804 79.9021 18.4816L78.7743 18.5131C78.1666 18.5491 77.7107 18.5681 77.4067 18.5701L77.0947 18.5722C76.8547 18.5737 76.6386 18.5592 76.4464 18.5284L76.5875 18.0955C76.5235 18.0959 76.3154 18.0813 75.9632 18.0516C76.5432 16.2238 77.6043 13.3607 79.1465 9.4624C78.9982 8.80736 78.794 8.1687 78.5338 7.54641C78.2896 6.90801 77.9808 6.17403 77.6073 5.34448C77.1684 4.30736 76.827 3.4936 76.5831 2.9032C76.3551 2.29669 76.1588 1.64997 75.9943 0.963048C76.4263 0.960192 76.8421 0.933443 77.2418 0.8828C77.3857 0.865849 77.5615 0.848686 77.7694 0.831312C77.9933 0.813832 78.2493 0.80414 78.5373 0.802236C79.3052 0.79716 79.7226 0.994406 79.7892 1.39397C79.9174 1.42513 80.0537 1.47223 80.1981 1.53527C80.4292 2.60577 80.8782 3.96283 81.5451 5.60646C81.6868 5.25352 81.9536 4.46774 82.3455 3.24912C82.4081 3.0407 82.5179 2.69597 82.6747 2.21492C82.8474 1.71777 82.9968 1.32477 83.1229 1.03593C83.6181 0.904655 84.5136 0.834734 85.8096 0.826168C86.0016 0.824899 86.3857 0.846361 86.962 0.890553L86.9641 1.20255C86.9485 1.26665 86.9328 1.30675 86.9169 1.32286C87.1731 1.35317 87.3492 1.368 87.4452 1.36737L87.4473 1.67936ZM86.7235 1.10813C86.4673 1.07783 86.1632 1.06384 85.8112 1.06616C84.6752 1.07367 83.8356 1.13522 83.2923 1.25082C83.0559 1.79639 82.7968 2.53412 82.5149 3.464C82.3268 4.04126 82.1305 4.61057 81.9262 5.17193C81.7379 5.73319 81.5568 6.1664 81.3828 6.47155C81.0745 5.81758 80.7167 4.94792 80.3095 3.86259C79.9183 2.77715 79.6485 1.89891 79.5001 1.22788C79.2273 1.10168 78.8508 1.04017 78.3709 1.04334C78.1309 1.04493 77.9229 1.0543 77.747 1.07146C77.5711 1.08863 77.4192 1.10563 77.2914 1.12248C76.9557 1.1727 76.6278 1.19886 76.3079 1.20098C76.4559 1.80801 76.652 2.43073 76.8962 3.06913C77.1403 3.69153 77.4573 4.44145 77.8471 5.3189C78.2695 6.29213 78.5947 7.07399 78.8226 7.6645C79.0505 8.25501 79.2385 8.85378 79.3865 9.46081L79.3868 9.50881C78.6 11.4981 77.9786 13.1022 77.5226 14.3212C77.0665 15.5243 76.6583 16.695 76.2978 17.8334L76.3458 17.8331C76.3939 17.8488 76.4899 17.8561 76.6339 17.8552L76.9219 17.8533C77.1939 17.8515 77.5858 17.8329 78.0976 17.7975L79.1774 17.7664L79.4894 17.7643C79.6334 17.7634 79.7294 17.7707 79.7776 17.7864C80.1697 16.5998 80.6101 15.4449 81.0987 14.3216C81.5873 13.1983 82.2496 11.7379 83.0858 9.94037C83.9696 8.09449 84.6951 6.50566 85.2623 5.17388C85.8295 3.8421 86.3166 2.49485 86.7236 1.13213L86.7235 1.10813ZM101.24 1.42019C101.276 1.96397 101.295 2.44385 101.298 2.85984C101.303 3.59582 101.245 4.46023 101.123 5.45305C100.611 5.37644 100.242 5.33887 100.018 5.34035C99.5863 5.34321 98.9945 5.37112 98.2428 5.42409L98.1228 5.42488C98.1078 5.56899 98.1026 5.99303 98.1072 6.69701C98.1173 8.21698 98.1986 12.0565 98.3514 18.2157C97.9838 18.2821 97.48 18.3174 96.84 18.3216L96.144 18.3262C95.2481 18.3322 94.5523 18.3768 94.0569 18.46C94.0084 18.3804 93.9672 18.2046 93.9334 17.9328L93.5737 17.9832C93.4928 17.8398 93.4508 17.536 93.4477 17.072L93.4474 13.4C93.4323 11.112 93.3427 8.45654 93.1788 5.43356C93.0507 5.41841 92.8506 5.41173 92.5786 5.41353C92.4826 5.41416 92.3066 5.41533 92.0506 5.41702C91.8106 5.4186 91.5866 5.41209 91.3785 5.39746C91.1864 5.38273 91.0021 5.34395 90.8257 5.28111C90.8095 5.24922 90.7932 5.20132 90.7767 5.13743C90.7763 5.07343 90.744 5.01765 90.6796 4.97007C90.6153 4.92249 90.503 4.86724 90.3425 4.80429C90.2938 4.69261 90.2439 4.40494 90.1928 3.94127C90.1578 3.47749 90.1384 2.9736 90.1348 2.42962C90.1291 1.56563 90.1331 0.949594 90.1466 0.581497C91.1546 0.574834 91.9145 0.561811 92.4264 0.542427L94.7302 0.5032C97.0502 0.487865 98.9867 0.563067 100.54 0.728804L100.757 0.943372L100.759 1.18337L101.023 1.20562L101.24 1.42019ZM90.3882 0.819905L90.4125 0.867746C90.3819 1.07595 90.3679 1.38005 90.3705 1.78004C90.3821 3.52401 90.4364 4.47567 90.5334 4.63503C90.6136 4.6665 90.8617 4.68086 91.2777 4.67811C91.8377 4.67441 92.2778 4.6875 92.598 4.71739C92.9181 4.73127 93.1905 4.79347 93.4153 4.90399L93.4394 4.92783C93.5867 7.83892 93.6697 10.7184 93.6885 13.5664C93.6967 14.7983 93.6877 15.8624 93.6616 16.7586L93.6664 17.4786L93.692 17.7184C93.9796 17.6685 94.2915 17.6425 94.6275 17.6403L95.6355 17.6336C96.5794 17.6274 97.2432 17.591 97.6268 17.5244L97.6265 17.4764C97.4738 11.3333 97.393 7.58175 97.3841 6.22178L97.3783 5.3578C97.3762 5.03781 97.391 4.84571 97.4225 4.7815L97.4461 4.70934L97.5181 4.70886C98.3497 4.65537 99.0056 4.62703 99.4855 4.62386C99.8695 4.62132 100.19 4.6432 100.446 4.68951C100.537 3.98489 100.58 3.21659 100.575 2.38461C100.573 2.04862 100.553 1.57673 100.517 0.968958C98.9324 0.819431 97.0039 0.752176 94.7319 0.767193L90.3882 0.819905ZM106.358 0.978353L106.838 0.97518L106.84 1.31117C106.849 2.57515 106.848 3.68717 106.838 4.64726C106.829 5.60734 106.818 6.40743 106.806 7.04752C106.759 9.63989 106.74 11.6081 106.749 12.952C106.761 14.696 106.82 16.3996 106.927 18.063C106.673 18.3207 106.09 18.4525 105.178 18.4585L104.098 18.4417C103.858 18.4273 103.521 18.4215 103.089 18.4243C102.737 18.4267 102.394 18.4689 102.058 18.5512L102.078 17.975C101.807 18.0088 101.639 18.0419 101.575 18.0743C101.676 16.4256 101.722 14.9213 101.713 13.5613C101.707 12.6493 101.694 11.8494 101.673 11.1615C101.653 10.4577 101.633 9.88178 101.614 9.4339C101.538 7.61036 101.497 6.2266 101.491 5.28262C101.48 3.71465 101.55 2.10616 101.699 0.457139C101.922 0.423659 102.066 0.406707 102.13 0.406284C102.578 0.403323 103.042 0.416256 103.523 0.445083C103.891 0.490649 104.371 0.511476 104.963 0.507563L106.355 0.498362L106.358 0.978353ZM104.989 0.7474C104.605 0.749938 103.981 0.730063 103.116 0.687775C102.636 0.658948 102.268 0.645381 102.012 0.647073L101.916 0.647708L101.916 0.695706C101.781 1.99263 101.719 3.51307 101.73 5.25703C101.737 6.18501 101.75 6.99294 101.77 7.68082C101.791 8.3687 101.811 8.94458 101.83 9.40847C101.906 11.296 101.948 12.7278 101.954 13.7037C101.963 15.0477 101.924 16.392 101.837 17.7366C102.061 17.7031 102.245 17.6859 102.389 17.685C102.581 17.6837 102.933 17.6974 103.445 17.726C104.021 17.7542 104.469 17.7672 104.789 17.7651C105.557 17.76 106.029 17.6689 106.203 17.4917C106.096 15.7644 106.036 14.0208 106.025 12.2608C106.016 10.9488 106.035 9.02866 106.083 6.50029C106.094 5.8602 106.105 5.06811 106.115 4.12403C106.125 3.17994 106.126 2.08391 106.117 0.835941L106.117 0.739945L104.989 0.7474ZM119.396 6.24429C119.402 7.26827 119.129 8.2301 118.575 9.12978C118.021 10.0135 117.281 10.7224 116.357 11.2565C115.448 11.7745 114.49 12.0368 113.482 12.0435C113.21 12.0453 113.01 12.0386 112.882 12.0235L112.888 13.0315C112.899 14.5674 112.934 16.2312 112.993 18.0229C112.833 18.0239 112.61 18.0494 112.322 18.0993C112.21 18.116 111.962 18.1417 111.578 18.1762C111.211 18.2267 110.859 18.253 110.523 18.2552C109.803 18.26 109.107 18.2246 108.434 18.149C108.433 17.925 108.4 17.7892 108.335 17.7417C108.271 17.6941 108.143 17.6709 107.951 17.6722C107.877 16.1206 107.827 13.3849 107.801 9.465L107.782 6.56107C107.764 3.87313 107.727 1.92933 107.671 0.729671C108.885 0.38564 110.132 0.209395 111.412 0.200935C112.74 0.192157 113.989 0.407903 115.16 0.848173C116.347 1.27234 117.327 1.93787 118.101 2.84478C118.875 3.75168 119.307 4.87685 119.396 6.2203L119.396 6.24429ZM118.672 5.74506C118.564 3.88974 117.811 2.54269 116.414 1.70391C115.016 0.849125 113.341 0.428186 111.389 0.441088C110.253 0.448596 109.094 0.60826 107.912 0.920079C107.988 2.71162 108.039 5.55134 108.065 9.43926L108.092 13.6632C108.101 15.0071 108.134 16.271 108.19 17.4546C108.622 17.5158 109.238 17.5437 110.038 17.5384C111.094 17.5314 111.814 17.4627 112.197 17.3321L112.269 17.2836C112.21 15.732 112.177 14.2602 112.167 12.8682L112.161 11.9322C112.159 11.6282 112.15 11.4043 112.133 11.2604C112.421 11.3065 112.709 11.3286 112.997 11.3267C113.893 11.3208 114.78 11.0829 115.656 10.6131C116.549 10.1432 117.273 9.5064 117.828 8.70271C118.399 7.89892 118.681 7.03304 118.675 6.10506L118.672 5.74506ZM115.219 6.1519C115.224 6.85588 114.955 7.30567 114.412 7.50126C113.885 7.69675 113.174 7.80545 112.278 7.82737L111.75 7.85486L111.678 7.85534C111.548 7.4562 111.479 6.80063 111.473 5.88865C111.468 5.13667 111.457 4.59273 111.438 4.25685C111.534 4.16021 111.869 4.10999 112.445 4.10619C113.245 4.1009 113.919 4.32045 114.466 4.76485C114.707 4.90726 114.892 5.10604 115.022 5.36119C115.151 5.60033 115.217 5.86391 115.219 6.1519ZM112.93 4.823C112.626 4.82501 112.37 4.8587 112.163 4.92407C112.18 5.16396 112.191 5.5079 112.194 5.95589L112.198 6.65188L112.201 7.05987C112.203 7.29986 112.22 7.47575 112.252 7.58754L112.372 7.58675C113.14 7.58167 113.764 7.48955 114.243 7.31038C114.737 7.1151 114.983 6.72147 114.979 6.12949C114.976 5.6655 114.766 5.33088 114.348 5.12563C113.931 4.92039 113.458 4.81951 112.93 4.823ZM130.609 6.79419C129.906 6.91084 129.25 6.97117 128.642 6.97519C127.89 6.98016 127.234 6.9045 126.673 6.74821C126.689 6.7001 126.696 6.58005 126.694 6.38806C126.47 6.35754 126.302 6.31865 126.19 6.27139C126.205 6.22328 126.213 6.11923 126.212 5.95924C126.209 5.62324 126.128 5.39978 125.967 5.28884C125.806 5.1779 125.582 5.12338 125.294 5.12528C124.974 5.1274 124.703 5.22519 124.48 5.41867C124.257 5.61215 124.147 5.89288 124.15 6.26087C124.151 6.51687 124.208 6.68449 124.321 6.76375C124.433 6.82701 124.57 6.86611 124.73 6.88105C124.89 6.89599 125.002 6.91125 125.066 6.92683C126.059 7.06427 126.997 7.44208 127.882 8.06025C128.782 8.66231 129.498 9.40159 130.032 10.2781C130.582 11.1385 130.86 12.0166 130.866 12.9126C130.873 13.9846 130.639 14.9302 130.164 15.7493C129.69 16.5685 129.054 17.1967 128.257 17.634C127.476 18.0871 126.621 18.3168 125.693 18.3229C124.637 18.3299 123.596 18.0968 122.569 17.6236C121.542 17.1664 120.697 16.5319 120.036 15.7203C119.391 14.8925 119.065 13.9907 119.058 13.0147L119.08 12.7025L119.078 12.3665C119.509 12.2997 119.973 12.2646 120.469 12.2613L121.861 12.2761C122.181 12.29 122.637 12.295 123.229 12.2911C123.231 12.4671 123.256 12.6269 123.305 12.7706L123.713 12.7679C123.715 13.1679 123.805 13.4473 123.982 13.6061C124.159 13.749 124.424 13.8192 124.776 13.8169C125.128 13.8146 125.423 13.7166 125.662 13.523C125.9 13.3295 126.019 13.0567 126.016 12.7047C126.013 12.2087 125.827 11.8659 125.457 11.6763C125.088 11.4868 124.711 11.3613 124.327 11.2998C123.942 11.2224 123.694 11.176 123.582 11.1607L123.221 11.0911C122.741 10.9983 122.34 10.8489 122.019 10.6431C121.697 10.4212 121.351 10.1275 120.981 9.7619C119.854 8.69732 119.285 7.42905 119.275 5.95708C119.269 4.9651 119.511 4.05149 120.001 3.21623C120.492 2.38097 121.16 1.72054 122.004 1.23494C122.865 0.733243 123.815 0.478955 124.855 0.472081C125.927 0.464996 126.921 0.658435 127.835 1.0524C128.766 1.44626 129.514 2.01733 130.079 2.76561C130.644 3.51389 130.929 4.40002 130.936 5.424C130.939 5.82399 130.894 6.2803 130.801 6.79292L130.609 6.79419ZM130.101 6.07754C130.178 5.62902 130.215 5.25276 130.213 4.94877C130.204 3.5248 129.685 2.46421 128.656 1.76699C127.643 1.05367 126.377 0.702029 124.857 0.712076C123.849 0.718738 122.939 0.956762 122.126 1.42615C121.313 1.89553 120.669 2.5318 120.194 3.33495C119.735 4.138 119.509 5.01152 119.515 5.9555C119.519 6.51548 119.643 7.12268 119.888 7.77708C120.132 8.41548 120.503 8.98103 121.003 9.47374C121.502 9.96645 122.096 10.2665 122.785 10.374C122.929 10.405 123.346 10.4903 124.034 10.6297C124.723 10.7532 125.261 10.9896 125.647 11.3391C126.05 11.6884 126.253 12.1431 126.256 12.7031C126.259 13.1511 126.117 13.488 125.831 13.7139C125.544 13.9398 125.193 14.0541 124.777 14.0569C124.313 14.06 123.904 13.9347 123.551 13.681C123.213 13.4112 123.026 13.0284 122.991 12.5327C122.495 12.5359 122.119 12.5304 121.863 12.5161L120.567 12.5007C120.119 12.5037 119.703 12.5304 119.319 12.5809L119.322 12.9889C119.328 13.9329 119.622 14.755 120.202 15.4552C120.783 16.1553 121.522 16.6945 122.421 17.0725C123.335 17.4345 124.273 17.6123 125.233 17.606C126.113 17.6001 126.927 17.4028 127.677 17.0138C128.426 16.6088 129.022 16.0209 129.465 15.2499C129.924 14.4629 130.15 13.5334 130.143 12.4614C130.137 11.5814 129.899 10.759 129.43 9.99405C128.961 9.21314 128.333 8.56927 127.546 8.06247C126.774 7.55555 125.94 7.25706 125.044 7.16698C123.971 7.06207 123.432 6.59363 123.426 5.76164C123.423 5.32965 123.557 5.00076 123.828 4.77497C124.098 4.53318 124.425 4.41101 124.809 4.40847C125.257 4.40551 125.65 4.53092 125.988 4.78469C126.326 5.03846 126.496 5.37335 126.499 5.78934C126.499 5.93333 126.492 6.02939 126.476 6.07749C127.005 6.218 127.558 6.28635 128.134 6.28254C128.63 6.27926 129.277 6.21098 130.077 6.07769L130.101 6.07754Z" fill="black"/>
</svg>
